<svg aria-hidden="true" focusable="false" data-prefix="fal" data-icon="blinds-open" role="img" xmlns="http://www.w3.org/2000/svg" viewBox="0 0 512 512" class="svg-inline--fa fa-blinds-open fa-w-16 fa-3x">
	<path fill="rgb(246, 189, 0)" d="M496,480H16a16,16,0,0,0,0,32H496a16,16,0,0,0,0-32ZM16,352H80.36a79.29,79.29,0,0,1-14.75-32H16a16,16,0,0,0,0,32Zm480-32H222.39a79.29,79.29,0,0,1-14.75,32H496a16,16,0,0,0,0-32ZM496,0H16A16,16,0,0,0,0,16V80A16,16,0,0,0,16,96H128v64H16a16,16,0,0,0,0,32H128v66.94a48,48,0,1,0,32,0V96H496a16,16,0,0,0,16-16V16A16,16,0,0,0,496,0ZM144,320a16,16,0,1,1,16-16A16,16,0,0,1,144,320ZM480,64H32V32H480Zm16,96H192v32H496a16,16,0,0,0,0-32Z" class="">
	</path>
</svg>
